<svg xmlns="http://www.w3.org/2000/svg" xmlns:xlink="http://www.w3.org/1999/xlink" width="500" zoomAndPan="magnify" viewBox="0 0 375 374.999991" height="500" preserveAspectRatio="xMidYMid meet" version="1.0"><defs><clipPath id="f82a6e45b3"><path d="M 285.796875 107.554688 L 374.917969 107.554688 L 374.917969 216.96875 L 285.796875 216.96875 Z M 285.796875 107.554688 " clip-rule="nonzero"/></clipPath><clipPath id="0c969005b9"><path d="M 49 150 L 340.445312 150 L 340.445312 370.6875 L 49 370.6875 Z M 49 150 " clip-rule="nonzero"/></clipPath></defs><path fill="#020617" d="M 289.960938 67.144531 C 289.246094 89.222656 284.3125 109.269531 270.820312 126.953125 C 266.164062 133.050781 260.492188 138.226562 253.234375 141.738281 C 239.804688 148.242188 225.160156 145.097656 215.847656 134.035156 C 204.789062 120.902344 200.945312 105.621094 199.96875 89.550781 C 199.089844 75.089844 201.074219 60.878906 206.554688 47.261719 C 212.339844 32.886719 220.167969 19.640625 235.125 11.449219 C 247.546875 4.652344 260.5 6.527344 270.625 16.011719 C 282.238281 26.886719 286.828125 40.535156 288.929688 55.121094 C 289.542969 59.390625 289.960938 64.203125 289.960938 67.144531 " fill-opacity="1" fill-rule="nonzero"/><path fill="#020617" d="M 168.097656 93.773438 C 167.800781 108.414062 165.351562 124.011719 154.832031 137.550781 C 143.054688 152.710938 124.703125 154.785156 109.0625 142.84375 C 97.324219 133.886719 89.980469 122.234375 84.769531 109.320312 C 76.640625 89.179688 74.550781 68.597656 79.988281 47.597656 C 82.011719 39.765625 85.382812 32.398438 90.621094 25.851562 C 101.824219 11.84375 118.054688 9.414062 133.484375 19.449219 C 146.523438 27.9375 154.371094 39.878906 160.046875 53.230469 C 165.386719 65.796875 167.785156 78.878906 168.097656 93.773438 " fill-opacity="1" fill-rule="nonzero"/><path fill="#020617" d="M 96.078125 194.210938 C 96.125 203.027344 94.277344 211.46875 88.9375 218.882812 C 79.652344 231.769531 63.117188 235.582031 46.648438 228.691406 C 27.4375 220.648438 15.429688 206.480469 7.621094 189.003906 C 1.804688 176 0.0429688 162.597656 3.59375 148.734375 C 8.667969 128.925781 28.371094 119.328125 49 126.875 C 66.929688 133.429688 78.820312 145.832031 87.328125 161.21875 C 93.039062 171.546875 96.03125 182.570312 96.078125 194.210938 " fill-opacity="1" fill-rule="nonzero"/><g clip-path="url(#f82a6e45b3)"><path fill="#020617" d="M 374.886719 144.785156 C 373.011719 172.703125 361.515625 195.9375 334.9375 211.183594 C 325.359375 216.679688 314.5625 218.667969 303.652344 213.628906 C 296.039062 210.113281 291.675781 204.035156 288.996094 196.851562 C 284.097656 183.699219 285.347656 170.511719 289.707031 157.578125 C 295.574219 140.160156 305.738281 125.226562 322.53125 114.867188 C 336.136719 106.476562 350.9375 104.769531 361.863281 113.101562 C 371.230469 120.246094 374.179688 130.253906 374.878906 140.972656 C 374.957031 142.238281 374.886719 143.515625 374.886719 144.785156 " fill-opacity="1" fill-rule="nonzero"/></g><g clip-path="url(#0c969005b9)"><path fill="#020617" d="M 278.265625 218.800781 C 248.75 182.816406 222.125 141.53125 168.515625 151.539062 C 122.152344 160.195312 133.5 206.871094 111.160156 236.4375 C 85.847656 269.933594 33.601562 271.980469 53.742188 326.292969 C 58.5 339.128906 63.316406 357.484375 76.792969 360.015625 C 86.152344 361.773438 113.96875 348.777344 129.035156 321.820312 C 144.550781 294.054688 137.4375 307.976562 144.195312 278.605469 C 148.796875 258.632812 157.292969 245.398438 169.617188 231.042969 C 179.0625 220.039062 182.636719 206.015625 189.472656 201.542969 C 190.988281 200.546875 193.046875 200.871094 194.09375 202.351562 C 197.160156 206.6875 196.679688 214.414062 198.980469 218.382812 C 199.585938 219.433594 200.726562 220.0625 201.941406 220.050781 C 204.347656 209.414062 208.542969 198.992188 212.269531 199.484375 C 215.441406 199.902344 218.285156 209.832031 219.242188 216.964844 C 219.902344 221.875 220.65625 227.078125 221.097656 231.375 C 221.257812 232.933594 222.476562 234.148438 224.019531 234.375 C 240.957031 236.894531 245.621094 251.398438 247.066406 253.054688 C 255.0625 262.21875 266.707031 261.378906 266.855469 277.789062 C 267.003906 294.199219 251.628906 297.90625 249.414062 298.464844 C 237.167969 301.558594 232.117188 302.285156 230.753906 316.65625 C 230.066406 323.992188 235.4375 339.625 237.898438 346.636719 C 241.476562 357.152344 243.28125 362.484375 244.207031 367.5625 C 244.488281 369.101562 245.789062 370.253906 247.351562 370.339844 C 260.558594 371.0625 273.546875 370.847656 285.839844 367.921875 C 310.65625 362.015625 331.832031 326.027344 338.25 301.640625 C 350.472656 255.179688 302.460938 248.296875 278.265625 218.800781 " fill-opacity="1" fill-rule="nonzero"/></g></svg>